<svg xmlns="http://www.w3.org/2000/svg" width="137" height="35" viewBox="0 0 137 35">
  <g fill="none" fill-rule="evenodd">
    <polygon fill="#016EB3" points="5.5 34.756 0 34.756 7.663 20.007 13.163 20.007"/>
    <polygon fill="#4DC9FF" points="18.099 10.536 15.356 5.257 20.855 5.257 28.519 20.007 23.019 20.007 18.099 10.536 13.178 20.007 7.678 20.007 15.342 5.257 20.841 5.257 18.099 10.536"/>
    <polygon fill="#009DE2" points="13.178 20.007 7.678 20.007 15.342 34.756 20.841 34.756"/>
    <polygon fill="#016EB3" points="20.827 34.756 15.327 34.756 22.991 20.007 28.491 20.007"/>
    <polygon fill="#009DE2" points="28.511 20.012 23.01 20.012 30.674 34.762 36.173 34.762"/>
    <polygon fill="#009DE2" points="20.855 5.257 18.106 10.515 15.355 5.257 18.106 0 20.855 5.257"/>
    <g fill="#FFF" transform="translate(40 12.8)">
      <polygon points="17.294 7.736 19.85 7.736 18.378 .986 2.415 .986 .904 7.8 3.481 7.8 4.589 2.778 16.219 2.778"/>
      <polygon points="3.154 21.94 5.375 11.116 7.519 21.94 9.555 21.94 7.291 10.475 5.409 10.475 5.8 8.525 3.635 8.525 .975 21.94"/>
      <polygon points="14.295 21.94 16.613 11.116 18.755 21.94 20.796 21.94 18.527 10.475 16.65 10.475 17.039 8.525 14.874 8.525 12.115 21.94"/>
      <polygon points="27.502 .986 26.197 .986 26.295 3.326 25.489 3.326 25.489 5.21 29.702 5.21 29.702 10.964 31.599 10.964 31.599 5.21 35.715 5.21 35.715 3.326 35.006 3.326 35.103 .986 33.893 .986 33.797 3.326 31.599 3.326 31.599 .594 29.702 .594 29.702 3.326 27.597 3.326"/>
      <path d="M27.6759538 16.9379L27.6759538 15.2534 33.3282923 15.2534 33.3282923 16.9994 30.8813077 18.9449 27.6759538 16.9379zM32.3362308 21.7919C32.5352462 21.9089 32.8714615 21.9824 33.2981385 21.9824L35.9094615 21.9824 35.9094615 20.8769 34.3731231 20.8769C34.1379231 20.8769 33.8725692 20.8409 33.5619846 20.7659L33.3976462 20.6924 32.2427538 19.9259 35.0274615 17.4899 35.0274615 15.2534 35.9094615 15.2534 35.9094615 13.5629 35.0274615 13.5629 35.0274615 12.4919 33.3282923 12.4919 33.3282923 13.5629 27.6759538 13.5629 27.6759538 12.5894 25.9798 12.5894 25.9798 13.5629 25.4898 13.5629 25.4898 15.2534 25.9798 15.2534 25.9798 17.7359 29.7173692 20.1764 28.2956154 20.7404C28.1237385 20.8259 27.8583846 20.8769 27.5146308 20.8769L25.4898 20.8769 25.4898 21.9824 28.2006308 21.9824C28.6770615 21.9824 29.0766 21.8804 29.3811538 21.6794L30.8617077 20.6954 32.3362308 21.7919zM27.49488 10.9211L28.2577723 7.1291 26.7772185 7.1291C26.7772185 7.1291 25.9932185 10.8491 25.9751262 10.9211L27.49488 10.9211z"/>
      <polygon points="43.388 21.972 46.441 21.972 46.441 20.705 43.388 20.705"/>
      <polygon points="40.756 21.972 37.373 21.972 37.373 20.704 40.429 20.704"/>
      <polygon points="39.363 5.265 37.337 5.265 38.795 1.891 38.784 .661 40.811 .661 40.773 2.056"/>
      <path d="M35.2364277,10.9532 C35.2273815,10.8902 35.2047662,10.8347 35.2047662,10.7687 L34.6258123,7.2257 L33.1512892,7.2257 L33.7905508,10.9532 L35.2364277,10.9532 Z"/>
      <polygon points="39.842 3.942 46.595 3.942 46.595 2.057 39.842 2.057"/>
      <polygon points="46.103 6.445 43.876 6.445 41.971 12.607 40.088 7.617 37.864 7.617 40.808 15.67 38.929 20.965 40.756 21.972 41.985 18.681 43.387 22.042 44.774 20.737 42.932 16.185"/>
      <polygon points="60.49 5.958 57.178 5.958 57.178 3.455 60.59 3.455 60.59 1.961 50.775 1.961 50.775 3.552 54.889 3.552 54.889 5.958 50.678 5.958 50.678 7.746 54.889 7.746 54.889 21.972 56.985 21.972 56.985 7.746 60.49 7.746"/>
      <polygon points="51.542 22.005 53.433 22.005 53.433 9.567 51.542 9.567"/>
      <polygon points="58.402 22.005 60.033 22.005 60.033 9.567 58.402 9.567"/>
      <polygon points="65.424 7.41 63.123 7.41 62.112 1.961 64.413 1.961"/>
      <polygon points="66.586 7.455 63.123 7.455 62.796 5.655 66.586 5.655"/>
      <polygon points="65.424 14.952 63.123 14.952 62.112 9.501 64.413 9.501"/>
      <polygon points="66.586 14.996 63.123 14.996 62.796 13.197 66.586 13.197"/>
      <polygon points="68.121 21.972 70.225 21.972 70.225 .887 68.121 .887"/>
      <polygon points="71.601 18.434 61.754 19.34 61.754 17.516 71.601 16.608"/>
      <path d="M96.8722462,21.20285 L96.8722462,19.70735 L96.0234154,19.70735 C96.0023077,19.71335 95.9148615,19.71935 95.8319385,19.71935 C95.2273538,19.71935 94.7056923,19.43735 94.3227385,18.90485 L92.2421231,16.17785 L96.8722462,9.46985 L96.8722462,7.71335 L91.9722462,7.71335 L91.9722462,3.74735 L96.8722462,3.74735 L96.8722462,2.15585 L91.9722462,2.15585 L91.9722462,0.20435 L89.5885846,0.20435 L89.5885846,2.15585 L85.7650769,2.15585 L85.7650769,3.74735 L89.5885846,3.74735 L89.5885846,7.71335 L85.5675692,7.71335 L85.5675692,9.30485 L94.4312923,9.30485 L91.0555692,14.54585 L88.8000615,11.51585 L86.2957846,11.51585 L89.9232923,16.26785 L87.8064923,18.92435 C87.4340923,19.44485 87.0044,19.71935 86.5385231,19.71935 L84.8830769,19.70435 L84.8830769,21.20285 L87.7914154,21.20285 C88.4608308,21.20285 88.6131077,21.07535 88.6131077,21.07535 L91.0374769,17.92835 L93.0155692,20.63585 C93.1753846,20.94035 93.3924923,21.20285 94.0634154,21.20285 L96.8722462,21.20285 Z"/>
      <polygon points="75.388 17.162 77.185 17.162 77.185 15.276 75.388 15.276"/>
      <polygon points="76.161 21.203 82.805 21.203 82.805 19.718 76.161 19.704"/>
      <polygon points="84.13 3.942 84.13 2.057 82.856 2.057 82.856 .4 80.667 .4 80.667 2.057 75.767 2.057 75.767 3.942 80.667 3.942 80.667 7.237 75.891 15.443 77.186 17.162 80.571 11.28 80.547 21.127 82.841 21.127 82.856 8.332 83.74 8.332 83.74 6.154 82.856 6.154 82.856 3.942"/>
    </g>
  </g>
</svg>
